<?xml version="1.0" encoding="utf-8"?>
<!-- Generator: Adobe Illustrator 19.0.0, SVG Export Plug-In . SVG Version: 6.00 Build 0)  -->
<svg version="1.1" id="TU-Logo" xmlns="http://www.w3.org/2000/svg" xmlns:xlink="http://www.w3.org/1999/xlink" x="0px" y="0px"
	 viewBox="0 0 202 112.6" style="enable-background:new 0 0 202 112.6;" xml:space="preserve">
<style type="text/css">
	.st0{fill:#FFFFFF;}
</style>
<path class="st0" d="M172.3,8.4l29.6,0c0,0-5.9,61.8-5.9,61.8c-0.3,3-1.3,8.1-4.4,13.6c-2.5,4.3-5.7,7.5-9.9,10.3
	c-4.5,3-10.2,5.4-18.2,5.4C163.6,99.5,172.3,8.4,172.3,8.4z M135.6,29.1l-4,41.7c-0.7,10,3,15.1,5.3,17.8
	c4.2,4.9,12.1,8.8,21.1,10.4c0.3-2.6,8-83.3,8-83.3c0.3-4.1-0.9-7.8-3.7-10.9c-3.2-3.7-8-4.8-10-4.8L81.5,0
	c-5.3,0-13.3,5.4-13.3,14.3c0,11,9.8,14.8,13.2,14.8C83,29.1,135.6,29.1,135.6,29.1z M94.3,91.1l26.4,0l5.4-56.1l-26.4,0
	C99.7,35.1,95,83.9,94.3,91.1L94.3,91.1z M186.1,53.8c-3.1,0-4.9,1.3-5.2,3.8c-0.1,1.5,0.5,2.7,1.8,3.3l0,0
	c-0.5-0.1-1.3-0.2-1.9-0.2l-4.7,0l-0.2,2.2l14.7,0c0.4-1.1,0.6-2.2,0.8-3.7C191.6,55.9,189.6,53.8,186.1,53.8z M186,56.2
	c2.7,0,3.7,1.2,3.5,3c-0.1,0.6-0.2,1.2-0.4,1.6l-3.2,0c-1.7,0-3.5-0.9-3.4-2.5C182.8,56.8,184,56.2,186,56.2z M186.5,43.2
	c-2.3,0-4.4,1.2-4.6,4.2c-0.3,3,1.9,4.7,4.9,4.7c3.6,0,5.4-1.8,5.7-4.9c0.1-1.3,0-2.6-0.3-3.6l-1.7,0.3c0.3,0.9,0.4,2,0.3,3
	c-0.2,2.1-1.3,3.1-3.6,3l0.6-6.5C187.3,43.2,186.9,43.2,186.5,43.2z M186.1,45.4l-0.4,4.4c-1.4-0.2-2.2-1.1-2.1-2.3
	C183.6,46.1,184.6,45.3,186.1,45.4z M183.1,35.3c-0.4,1.9,0.8,3,2.1,3.4l0,0c-0.8-0.1-1.7-0.2-2.2-0.2l-0.2,2.1l10.2,0l0.2-2.2
	l-4.1,0c-3.1,0-4.4-1-3.8-3L183.1,35.3z M193.8,31.2l-15,0l-0.2,2.2l15,0L193.8,31.2z M181,25.7c-0.8,0-1.4,0.6-1.5,1.4
	c-0.1,0.8,0.5,1.4,1.2,1.4c0.8,0,1.4-0.6,1.5-1.4C182.3,26.3,181.8,25.7,181,25.7z M194.3,26l-10.2,0l-0.2,2.2l10.2,0L194.3,26z
	 M195.5,14.4l-7.1,0c-1.8,0-3.3,0.7-3.6,3.1c-0.2,1.7,0.6,3,1.9,3.6l0,0c-0.6-0.1-1.4-0.1-2-0.1l-0.2,2.1l10.2,0l0.2-2.2l-4.9,0
	c-2.1,0-3.6-1.1-3.4-2.7c0.1-1.2,0.9-1.5,2.2-1.5l6.5,0L195.5,14.4z"/>
<g>
	<path class="st0" d="M9,59.5L8,69.8H6.1l1-10.4H3.8l0.2-1.6h8.5l-0.2,1.6H9z"/>
	<path class="st0" d="M19.1,65.6h-5.6c-0.2,2,0.5,2.9,2.3,2.9c0.9,0,1.8-0.2,2.6-0.5l0.1,1.5c-1,0.4-2.1,0.6-3.2,0.6
		c-2.7,0-4.1-1.4-3.8-4.5c0.3-2.6,2-4.7,4.5-4.7c2.5,0,3.4,1.7,3.2,3.7C19.3,64.8,19.2,65.2,19.1,65.6z M15.8,62.2
		c-1.1,0-1.9,0.8-2.2,2h3.8C17.6,63,16.9,62.2,15.8,62.2z"/>
	<path class="st0" d="M24.2,70c-2.3,0-3.8-1.1-3.5-4.3c0.3-2.8,1.9-4.9,4.9-4.9c0.7,0,1.5,0.1,2,0.3l-0.5,1.6
		c-0.5-0.2-1.2-0.4-1.8-0.4c-1.5,0-2.4,1.2-2.6,3.1c-0.2,1.6,0.3,2.8,2,2.8c0.7,0,1.4-0.1,1.9-0.4l0.1,1.6
		C26.1,69.8,25.1,70,24.2,70z"/>
	<path class="st0" d="M34.1,69.8l0.5-5.7c0.1-1.1-0.1-1.8-1.1-1.8c-1.3,0-2.4,1.4-2.6,3.2l-0.4,4.2h-1.9l1.2-13h1.9l-0.4,4
		c-0.1,0.6-0.2,1.3-0.3,1.8l0,0c0.6-1.1,1.7-1.8,3.2-1.8c2,0,2.5,1.3,2.4,2.8L36,69.8H34.1z"/>
	<path class="st0" d="M44.1,69.8l0.5-5.7c0.1-1.1-0.1-1.8-1.1-1.8c-1.3,0-2.4,1.4-2.6,3.2l-0.4,4.2h-1.9l0.9-8.8h1.8
		c0,0.5-0.2,1.2-0.3,1.7h0c0.6-1.1,1.8-1.9,3.3-1.9c2,0,2.5,1.3,2.4,2.8L46,69.8H44.1z"/>
	<path class="st0" d="M48.6,69.8l0.9-8.8h1.9l-0.9,8.8H48.6z M50.6,59.4c-0.7,0-1.2-0.5-1.1-1.2c0.1-0.7,0.7-1.2,1.3-1.2
		c0.7,0,1.2,0.5,1.1,1.2C51.8,58.9,51.2,59.4,50.6,59.4z"/>
	<path class="st0" d="M54.6,70c-0.7,0-1.4-0.1-1.9-0.2l0.3-1.6c0.5,0.2,1.2,0.3,1.9,0.3c1,0,1.7-0.4,1.8-1.2
		c0.2-1.8-3.8-0.7-3.5-3.8c0.1-1.5,1.4-2.7,3.9-2.7c0.5,0,1.1,0.1,1.7,0.2l-0.3,1.5c-0.5-0.2-1.1-0.2-1.6-0.2c-1,0-1.6,0.4-1.7,1.1
		c-0.2,1.7,3.8,0.8,3.5,3.8C58.5,68.8,56.9,70,54.6,70z"/>
	<path class="st0" d="M63.8,70c-2.3,0-3.8-1.1-3.5-4.3c0.3-2.8,1.9-4.9,4.9-4.9c0.7,0,1.5,0.1,2,0.3l-0.5,1.6
		c-0.5-0.2-1.2-0.4-1.8-0.4c-1.5,0-2.4,1.2-2.6,3.1c-0.2,1.6,0.3,2.8,2,2.8c0.7,0,1.4-0.1,1.9-0.4l0.1,1.6
		C65.7,69.8,64.7,70,63.8,70z"/>
	<path class="st0" d="M73.7,69.8l0.5-5.7c0.1-1.1-0.1-1.8-1.1-1.8c-1.3,0-2.4,1.4-2.6,3.2l-0.4,4.2h-1.9l1.2-13h1.9l-0.4,4
		c-0.1,0.6-0.2,1.3-0.3,1.8l0,0c0.6-1.1,1.7-1.8,3.2-1.8c2,0,2.5,1.3,2.4,2.8l-0.6,6.2H73.7z"/>
	<path class="st0" d="M85.5,65.6h-5.6c-0.2,2,0.5,2.9,2.3,2.9c0.9,0,1.8-0.2,2.6-0.5l0.1,1.5c-1,0.4-2.1,0.6-3.2,0.6
		c-2.7,0-4.1-1.4-3.8-4.5c0.3-2.6,2-4.7,4.5-4.7c2.5,0,3.4,1.7,3.2,3.7C85.6,64.8,85.5,65.2,85.5,65.6z M82.2,62.2
		c-1.1,0-1.9,0.8-2.2,2h3.8C83.9,63,83.3,62.2,82.2,62.2z"/>
	<path class="st0" d="M4.2,91.3c-3.8,0-4.4-2.1-4.2-4.3l0.8-7.9h1.9L2,86.9c-0.2,1.6,0.3,2.8,2.5,2.8c2,0,2.9-0.8,3.1-3.1l0.7-7.5
		h1.9l-0.7,7.4C9.2,89.7,7.3,91.3,4.2,91.3z"/>
	<path class="st0" d="M17.3,91.1l0.5-5.7c0.1-1.1-0.1-1.8-1.1-1.8c-1.3,0-2.4,1.4-2.6,3.2l-0.4,4.2h-1.9l0.9-8.8h1.8
		c0,0.5-0.2,1.2-0.3,1.7h0c0.6-1.1,1.8-1.9,3.3-1.9c2,0,2.5,1.3,2.4,2.8l-0.6,6.2H17.3z"/>
	<path class="st0" d="M21.8,91.1l0.9-8.8h1.9l-0.9,8.8H21.8z M23.7,80.7c-0.7,0-1.2-0.5-1.1-1.2c0.1-0.7,0.7-1.2,1.3-1.2
		c0.7,0,1.2,0.5,1.1,1.2C25,80.2,24.4,80.7,23.7,80.7z"/>
	<path class="st0" d="M30.4,91.1h-1.9L26,82.3h2.1l1.2,4.7c0.1,0.6,0.3,1.2,0.4,1.8h0c0.2-0.6,0.5-1.2,0.7-1.7l2.1-4.7h2L30.4,91.1z
		"/>
	<path class="st0" d="M42.4,86.9h-5.6c-0.2,2,0.5,2.9,2.3,2.9c0.9,0,1.8-0.2,2.6-0.5l0.1,1.5c-1,0.4-2.1,0.6-3.2,0.6
		c-2.7,0-4.1-1.4-3.8-4.5c0.3-2.6,2-4.7,4.5-4.7c2.5,0,3.4,1.7,3.2,3.7C42.5,86.1,42.5,86.5,42.4,86.9z M39.1,83.6
		c-1.1,0-1.9,0.8-2.2,2h3.8C40.8,84.3,40.2,83.6,39.1,83.6z"/>
	<path class="st0" d="M49.4,84c-1.7-0.3-2.7,0.9-3,3.5l-0.3,3.6h-1.9l0.9-8.8h1.8c0,0.5-0.2,1.3-0.4,2h0c0.5-1.2,1.5-2.3,3.1-2.1
		L49.4,84z"/>
	<path class="st0" d="M52.1,91.3c-0.7,0-1.4-0.1-1.9-0.2l0.3-1.6c0.5,0.2,1.2,0.3,1.9,0.3c1,0,1.7-0.4,1.8-1.2
		c0.2-1.8-3.8-0.7-3.5-3.8c0.1-1.5,1.4-2.7,3.9-2.7c0.5,0,1.1,0.1,1.7,0.2l-0.3,1.5c-0.5-0.2-1.1-0.2-1.6-0.2c-1,0-1.6,0.4-1.7,1.1
		c-0.2,1.7,3.8,0.8,3.5,3.8C56,90.1,54.4,91.3,52.1,91.3z"/>
	<path class="st0" d="M57.9,91.1l0.9-8.8h1.9l-0.9,8.8H57.9z M59.9,80.7c-0.7,0-1.2-0.5-1.1-1.2c0.1-0.7,0.7-1.2,1.3-1.2
		c0.7,0,1.2,0.5,1.1,1.2C61.1,80.2,60.5,80.7,59.9,80.7z"/>
	<path class="st0" d="M65.4,91.3c-1.9,0-2.4-0.7-2.2-2.7l0.5-4.8H62l0.1-1.5h1.7l0.3-2.8l2-0.5l-0.3,3.3h2.3l-0.1,1.5h-2.3L65.2,88
		c-0.1,1.3,0.1,1.7,1,1.7c0.4,0,0.8-0.1,1.1-0.1l0,1.5C66.8,91.2,66,91.3,65.4,91.3z"/>
	<path class="st0" d="M74,91.1c0.1-0.6,0.1-1.2,0.2-1.6l0,0c-0.5,1-1.7,1.8-3.1,1.8c-1.5,0-2.4-1-2.2-2.5c0.2-2,2.3-3.1,5.5-3.1
		l0-0.4c0.1-1.2-0.3-1.8-1.6-1.8c-0.8,0-1.9,0.3-2.7,0.6l-0.2-1.5c0.9-0.4,2.2-0.6,3.3-0.6c2.6,0,3.3,1.2,3.1,3.1L76,88.7
		c-0.1,0.8-0.1,1.7-0.2,2.4H74z M74.3,87.1c-2.6,0-3.4,0.7-3.5,1.5c-0.1,0.7,0.3,1.2,1.1,1.2c1.3,0,2.3-1.2,2.4-2.5L74.3,87.1z
		 M71.8,80.6c-0.6,0-1-0.5-1-1.1c0.1-0.6,0.6-1.1,1.2-1.1c0.6,0,1,0.5,1,1.1C72.9,80.2,72.4,80.6,71.8,80.6z M75.3,80.6
		c-0.6,0-1-0.5-1-1.1c0.1-0.6,0.6-1.1,1.2-1.1c0.6,0,1,0.5,1,1.1C76.4,80.2,75.9,80.6,75.3,80.6z"/>
	<path class="st0" d="M81.4,91.3c-1.9,0-2.4-0.7-2.2-2.7l0.5-4.8H78l0.1-1.5h1.7l0.3-2.8l2-0.5l-0.3,3.3H84l-0.1,1.5h-2.3L81.2,88
		c-0.1,1.3,0.1,1.7,1,1.7c0.4,0,0.8-0.1,1.1-0.1l0,1.5C82.7,91.2,82,91.3,81.4,91.3z"/>
	<path class="st0" d="M41.6,112.5c-0.8,0-1.9,0-3.2-0.1l1.2-12c0.9,0,2.3-0.1,3.7-0.1c2.6,0,3.8,1.1,3.6,2.9
		c-0.1,1.2-0.9,2.3-2.2,2.7l0,0c1.4,0.2,2.2,1.3,2,2.7C46.5,110.6,45.1,112.5,41.6,112.5z M41.9,107c-0.2,0-0.8,0-1.1,0l-0.4,3.8
		c0.3,0,1,0.1,1.4,0.1c1.8,0,2.7-0.9,2.8-2C44.7,107.6,43.7,107,41.9,107z M42.7,101.9c-0.5,0-1,0-1.5,0l-0.3,3.6c0.3,0,0.6,0,1,0
		c1.8,0,2.7-0.7,2.8-1.9C44.9,102.7,44.4,101.9,42.7,101.9z"/>
	<path class="st0" d="M55.9,108.2h-5.6c-0.2,2,0.5,2.9,2.3,2.9c0.9,0,1.8-0.2,2.6-0.5l0.1,1.5c-1,0.4-2.1,0.6-3.2,0.6
		c-2.7,0-4.1-1.4-3.8-4.5c0.3-2.6,2-4.7,4.5-4.7c2.5,0,3.4,1.7,3.2,3.7C56.1,107.4,56,107.8,55.9,108.2z M52.6,104.9
		c-1.1,0-1.9,0.8-2.2,2h3.8C54.4,105.7,53.7,104.9,52.6,104.9z"/>
	<path class="st0" d="M62.9,105.3c-1.7-0.3-2.7,0.9-3,3.5l-0.3,3.6h-1.9l0.9-8.8h1.8c0,0.5-0.2,1.3-0.4,2h0c0.5-1.2,1.5-2.3,3.1-2.1
		L62.9,105.3z"/>
	<path class="st0" d="M64,112.5l1.2-13h1.9l-1.2,13H64z"/>
	<path class="st0" d="M68.5,112.5l0.9-8.8h1.9l-0.9,8.8H68.5z M70.4,102.1c-0.7,0-1.2-0.5-1.1-1.2c0.1-0.7,0.7-1.2,1.3-1.2
		c0.7,0,1.2,0.5,1.1,1.2C71.7,101.5,71.1,102.1,70.4,102.1z"/>
	<path class="st0" d="M78.5,112.5l0.5-5.7c0.1-1.1-0.1-1.8-1.1-1.8c-1.3,0-2.4,1.4-2.6,3.2l-0.4,4.2H73l0.9-8.8h1.8
		c0,0.5-0.2,1.2-0.3,1.7h0c0.6-1.1,1.8-1.9,3.3-1.9c2,0,2.5,1.3,2.4,2.8l-0.6,6.2H78.5z"/>
</g>
</svg>
